<svg id="Camada_1" data-name="Camada 1" xmlns="http://www.w3.org/2000/svg" viewBox="0 0 536.6 460"><defs><style>.cls-1{fill:#8c676b;}.cls-2{fill:#f15649;}.cls-3{fill:#da3640;}.cls-4{fill:#b62b32;}.cls-5{fill:#ef5650;}.cls-6{fill:#4b3739;}.cls-7{fill:#fffefe;}.cls-8{fill:#41272d;}</style></defs><title>cardinals_bird_logo</title><path class="cls-1" d="M324.93,364.74l12.85,55a32.93,32.93,0,0,0-20.07,13.75s-5.34,10,4,10c3.92,0,21.74-10,25.44-10,10.26,0,12.24,6.12,9.48,20.4-3.41,17.71,8.43,16.35,11.93,11.3,4.53-6.53,3-8.26,3-8.26s-2.4,15.39,6.6,12.79c7.74-2.24,10.32-13.25,8.32-30.46-1.4-12-19.12-22.6-35.18-24.43L346,364.74Z" transform="translate(-25.83 -10)"/><path class="cls-1" d="M363,364.74l12.85,55a32.93,32.93,0,0,0-20.07,13.75h29.45c10.26,0,12.24,6.12,9.48,20.4-3.41,17.71,8.43,16.35,11.93,11.3,4.53-6.53,3-8.26,3-8.26s-2.4,15.39,6.6,12.79c7.74-2.24,10.32-13.25,8.32-30.46-1.4-12-19.12-22.6-35.18-24.43l-5.26-50.07Z" transform="translate(-25.83 -10)"/><path class="cls-2" d="M359.51,10S588,60,507.48,273.29,205,376.75,196.31,341.34c-30.47-19.22-34.75-37.3-50-63.7,34.82-37,152-150.14,169.56-158.85S381.27,49.17,359.51,10Z" transform="translate(-25.83 -10)"/><path class="cls-3" d="M315.82,118.8s169.89,102.14,32.33,207.28c0,0-71.7,46.09-151.84,15.26,0,0-10.88-11.54-35.36,27.87S70.1,458.12,34.2,393.93,85.88,341.8,146.27,277.65,284.65,141.78,315.82,118.8Z" transform="translate(-25.83 -10)"/><path class="cls-4" d="M181.35,251.37S229.05,325,377.6,277.74c0,0-48.37,89.05-170.92,50.47-19.82-6.24-34.85-28.57-58.1-44.41C148.58,283.79,167.69,260.62,181.35,251.37Z" transform="translate(-25.83 -10)"/><path class="cls-5" d="M514.18,129.94s43.59,11.94,47.94,19.19S523.45,176,523.45,176,512.84,142.3,514.18,129.94Z" transform="translate(-25.83 -10)"/><path class="cls-6" d="M501.46,104.44s-99.45-18-106.7,47.23,102.14,27.1,112.72,121.62C507.48,273.29,551.15,183.41,501.46,104.44Z" transform="translate(-25.83 -10)"/><circle class="cls-7" cx="433.44" cy="144.57" r="26.8"/><circle class="cls-8" cx="433.44" cy="146.39" r="17.91"/><ellipse class="cls-7" cx="445.71" cy="154.57" rx="8.34" ry="6.53" transform="translate(203.69 563.88) rotate(-81.85)"/></svg>