<svg xmlns="http://www.w3.org/2000/svg" viewBox="0 0 517.6 588.6"><defs><style>.cls-1{fill:#4c3638;}.cls-2{fill:#fff;}.cls-3{fill:none;}.cls-3,.cls-8{stroke:#1e1e1e;stroke-miterlimit:10;}.cls-4{fill:#ea7381;}.cls-5{fill:#dd3750;}.cls-6{fill:#a00d29;}.cls-7{fill:#420513;}.cls-19,.cls-8,.cls-9{fill:#1e1e1e;}.cls-10{fill:#232323;}.cls-11{fill:#8c676b;}.cls-12{fill:#f15649;}.cls-13{fill:#da3640;}.cls-14{fill:#b62b32;}.cls-15{fill:#ef5650;}.cls-16{fill:#4b3739;}.cls-17{fill:#fffefe;}.cls-18{fill:#41272d;}.cls-19{font-size:77.63px;font-family:CenturyGothic-Bold, Century Gothic;font-weight:700;letter-spacing:0.1em;}</style></defs><title>logo_cardinals</title><g id="Camada_1" data-name="Camada 1"><rect class="cls-1" x="49.26" y="151.38" width="422.47" height="271.92" rx="12" ry="12"/><rect class="cls-2" x="70.68" y="175.92" width="379.64" height="200.68" rx="12" ry="12"/><path class="cls-1" d="M475.15,474.69c-11.89,0-21.62-9.12-21.62-20.27h0a7.74,7.74,0,0,0-8-7.48H389.64a7.74,7.74,0,0,0-8,7.48h0c0,11.15-9.73,20.27-21.62,20.27H330.46a7.74,7.74,0,0,0-8,7.48h0c0,11.15,9.73,20.27,21.62,20.27H492.29c11.89,0,21.62-9.12,21.62-20.27h0a7.74,7.74,0,0,0-8-7.48Z" transform="translate(-159.4 -12.39)"/><circle class="cls-2" cx="258.8" cy="400.34" r="12.08"/><rect class="cls-3" x="88.59" y="198.54" width="158.13" height="148.33" rx="12" ry="12"/><polygon class="cls-4" points="151.14 306.85 151.14 330.55 103.67 330.55 151.14 306.85"/><polygon class="cls-5" points="163.09 271.88 163.09 330.55 151.14 330.55 151.14 303.91 163.09 271.88"/><polygon class="cls-6" points="196.73 264.73 198.24 330.55 163.09 330.55 163.09 269.25 196.73 264.73"/><polygon class="cls-7" points="226.54 224.65 226.54 330.55 198.24 330.55 196.73 264.73 226.54 224.65"/><path class="cls-8" d="M88.59,328.4H246.72a0,0,0,0,1,0,0v5.52a12.94,12.94,0,0,1-12.94,12.94H101.54a12.94,12.94,0,0,1-12.94-12.94V328.4A0,0,0,0,1,88.59,328.4Z"/><polygon class="cls-9" points="231.55 224.65 197.54 267.96 163.48 274.84 151.33 309.54 112.27 330.09 94.63 330.55 146.24 302.64 158.39 267.94 192.6 260.95 221.04 224.65 231.55 224.65"/><polygon class="cls-10" points="230.14 235.42 215.68 222.84 233.8 216.61 230.14 235.42"/><rect class="cls-11" x="270.89" y="202.18" width="160.21" height="27.13" rx="10.48" ry="10.48"/><rect class="cls-11" x="270.89" y="240.91" width="160.21" height="27.13" rx="10.48" ry="10.48"/><rect class="cls-11" x="270.89" y="279.63" width="160.21" height="27.13" rx="10.48" ry="10.48"/><rect class="cls-11" x="270.89" y="318.36" width="160.21" height="27.13" rx="10.48" ry="10.48"/></g><g id="Camada_3" data-name="Camada 3"><path class="cls-11" d="M533.44,139.55,538,159.26a11.8,11.8,0,0,0-7.19,4.93h10.56c3.68,0,4.39,2.19,3.4,7.31-1.22,6.35,3,5.86,4.28,4.05,1.62-2.34,1.07-3,1.07-3s-.86,5.52,2.36,4.58c2.78-.8,3.7-4.75,3-10.92-.5-4.29-6.85-8.1-12.61-8.76L541,139.55Z" transform="translate(-159.4 -12.39)"/><path class="cls-11" d="M547.08,139.55l4.61,19.71a11.8,11.8,0,0,0-7.19,4.93h10.56c3.68,0,4.39,2.19,3.4,7.31-1.22,6.35,3,5.86,4.28,4.05,1.62-2.34,1.07-3,1.07-3s-.86,5.52,2.36,4.58c2.78-.8,3.7-4.75,3-10.92-.5-4.29-6.85-8.1-12.61-8.76l-1.88-17.95Z" transform="translate(-159.4 -12.39)"/><path class="cls-12" d="M545.84,12.39s81.9,17.94,53,94.38-108.42,37.08-111.54,24.39c-10.92-6.89-12.46-13.37-17.94-22.83,12.48-13.26,54.48-53.82,60.78-56.94S553.64,26.43,545.84,12.39Z" transform="translate(-159.4 -12.39)"/><path class="cls-13" d="M530.18,51.39s60.9,36.61,11.59,74.3c0,0-25.7,16.52-54.43,5.47,0,0-3.9-4.14-12.68,10S442.09,173,429.22,150s18.52-18.69,40.17-41.68S519,59.63,530.18,51.39Z" transform="translate(-159.4 -12.39)"/><path class="cls-14" d="M482,98.92s17.1,26.38,70.35,9.45c0,0-17.34,31.92-61.27,18.09-7.1-2.24-12.49-10.24-20.83-15.92C470.23,110.54,477.08,102.23,482,98.92Z" transform="translate(-159.4 -12.39)"/><path class="cls-15" d="M601.28,55.39s15.63,4.28,17.19,6.88-13.87,9.62-13.87,9.62S600.8,59.82,601.28,55.39Z" transform="translate(-159.4 -12.39)"/><path class="cls-16" d="M596.72,46.24s-35.65-6.47-38.25,16.93,36.61,9.71,40.41,43.6C598.88,106.77,614.53,74.55,596.72,46.24Z" transform="translate(-159.4 -12.39)"/><circle class="cls-17" cx="422.2" cy="51.82" r="9.61"/><circle class="cls-18" cx="422.2" cy="52.47" r="6.42"/><ellipse class="cls-17" cx="576.74" cy="64.22" rx="2.99" ry="2.34" transform="translate(272.03 613.64) rotate(-81.85)"/><text class="cls-19" transform="translate(49.22 564.8)">Cardinals</text></g></svg>